<svg width="21" height="23" viewBox="0 0 21 23" fill="none" xmlns="http://www.w3.org/2000/svg">
<path d="M17.8229 4.812C17.671 4.73345 17.5231 4.64734 17.3799 4.554C16.9635 4.27872 16.5818 3.9544 16.2429 3.588C15.3939 2.617 15.0769 1.632 14.9609 0.943H14.9649C14.8679 0.37 14.9079 0 14.9149 0H11.0499V14.943C11.0499 15.143 11.0499 15.342 11.0419 15.538C11.0419 15.562 11.0389 15.584 11.0379 15.611C11.0379 15.621 11.0379 15.633 11.0349 15.644V15.653C10.9943 16.189 10.8226 16.7068 10.5349 17.1609C10.2471 17.615 9.85223 17.9914 9.38487 18.257C8.8973 18.5344 8.34583 18.6798 7.78487 18.679C5.98487 18.679 4.52487 17.211 4.52487 15.398C4.52487 13.584 5.98487 12.116 7.78487 12.116C8.12587 12.116 8.46487 12.17 8.78887 12.276L8.79387 8.34C7.80989 8.21305 6.81027 8.29147 5.85811 8.5703C4.90596 8.84913 4.02194 9.32232 3.26187 9.96C2.59573 10.5385 2.03566 11.2289 1.60687 12C1.44387 12.281 0.827874 13.412 0.753874 15.246C0.706874 16.286 1.01987 17.366 1.16887 17.811V17.821C1.26187 18.083 1.62587 18.979 2.21787 19.734C2.69527 20.34 3.25932 20.8724 3.89187 21.314V21.304L3.90087 21.314C5.77087 22.584 7.84587 22.501 7.84587 22.501C8.20487 22.486 9.40787 22.501 10.7739 21.854C12.2889 21.136 13.1509 20.067 13.1509 20.067C13.702 19.4281 14.1403 18.7 14.4469 17.914C14.7969 16.994 14.9129 15.892 14.9129 15.452V7.523C14.9599 7.551 15.5849 7.964 15.5849 7.964C15.5849 7.964 16.4849 8.541 17.8879 8.916C18.8939 9.183 20.2509 9.24 20.2509 9.24V5.403C19.7759 5.455 18.8109 5.305 17.8219 4.813L17.8229 4.812Z" fill="#333333"/>
</svg>
